<mxfile host="app.diagrams.net" agent="Mozilla/5.0 (Windows NT 10.0; Win64; x64) AppleWebKit/537.36 (KHTML, like Gecko) Chrome/136.0.0.0 Safari/537.36" version="27.0.5">
  <diagram name="Page-1" id="VyEJU8yaisLaTQ7fBMJz">
    <mxGraphModel grid="1" page="1" gridSize="10" guides="1" tooltips="1" connect="1" arrows="1" fold="1" pageScale="1" pageWidth="827" pageHeight="1169" math="0" shadow="0">
      <root>
        <mxCell id="0" />
        <mxCell id="1" parent="0" />
        <mxCell id="RmrX7f-hB1F3z02eTJsi-1" value="" style="rounded=0;whiteSpace=wrap;html=1;" vertex="1" parent="1">
          <mxGeometry x="10" y="20" width="60" height="1140" as="geometry" />
        </mxCell>
        <mxCell id="RmrX7f-hB1F3z02eTJsi-2" value="" style="rounded=0;whiteSpace=wrap;html=1;" vertex="1" parent="1">
          <mxGeometry x="760" y="20" width="60" height="1140" as="geometry" />
        </mxCell>
        <mxCell id="RmrX7f-hB1F3z02eTJsi-3" value="&lt;h1&gt;Copyright&lt;/h1&gt;" style="rounded=0;whiteSpace=wrap;html=1;" vertex="1" parent="1">
          <mxGeometry x="83.5" y="1100" width="660" height="60" as="geometry" />
        </mxCell>
        <mxCell id="RmrX7f-hB1F3z02eTJsi-5" value="" style="shape=link;html=1;rounded=0;strokeWidth=2;" edge="1" parent="1">
          <mxGeometry width="100" relative="1" as="geometry">
            <mxPoint x="83.5" y="20" as="sourcePoint" />
            <mxPoint x="740" y="20" as="targetPoint" />
          </mxGeometry>
        </mxCell>
        <mxCell id="RmrX7f-hB1F3z02eTJsi-6" value="&lt;h1&gt;Quote&lt;/h1&gt;" style="rounded=0;whiteSpace=wrap;html=1;" vertex="1" parent="1">
          <mxGeometry x="83.5" y="30" width="656.5" height="60" as="geometry" />
        </mxCell>
        <mxCell id="RmrX7f-hB1F3z02eTJsi-8" value="" style="html=1;rounded=0;strokeWidth=2;shape=link;" edge="1" parent="1">
          <mxGeometry width="100" relative="1" as="geometry">
            <mxPoint x="83.5" y="100" as="sourcePoint" />
            <mxPoint x="740" y="100" as="targetPoint" />
          </mxGeometry>
        </mxCell>
        <mxCell id="RmrX7f-hB1F3z02eTJsi-9" value="" style="endArrow=none;html=1;rounded=0;" edge="1" parent="1">
          <mxGeometry width="50" height="50" relative="1" as="geometry">
            <mxPoint x="90" y="1080" as="sourcePoint" />
            <mxPoint x="90" y="120" as="targetPoint" />
          </mxGeometry>
        </mxCell>
        <mxCell id="RmrX7f-hB1F3z02eTJsi-11" value="" style="endArrow=none;html=1;rounded=0;" edge="1" parent="1">
          <mxGeometry width="50" height="50" relative="1" as="geometry">
            <mxPoint x="740" y="1080" as="sourcePoint" />
            <mxPoint x="730" y="120" as="targetPoint" />
          </mxGeometry>
        </mxCell>
        <mxCell id="RmrX7f-hB1F3z02eTJsi-12" value="&lt;h1&gt;Heading&lt;/h1&gt;" style="rounded=0;whiteSpace=wrap;html=1;" vertex="1" parent="1">
          <mxGeometry x="100" y="120" width="620" height="60" as="geometry" />
        </mxCell>
        <mxCell id="RmrX7f-hB1F3z02eTJsi-14" value="" style="whiteSpace=wrap;html=1;aspect=fixed;" vertex="1" parent="1">
          <mxGeometry x="100" y="200" width="620" height="620" as="geometry" />
        </mxCell>
        <mxCell id="RmrX7f-hB1F3z02eTJsi-15" value="&lt;h1&gt;Text 1&lt;/h1&gt;" style="rounded=0;whiteSpace=wrap;html=1;" vertex="1" parent="1">
          <mxGeometry x="110" y="220" width="590" height="70" as="geometry" />
        </mxCell>
        <mxCell id="RmrX7f-hB1F3z02eTJsi-16" value="&lt;h1&gt;Photo&lt;/h1&gt;" style="rounded=0;whiteSpace=wrap;html=1;" vertex="1" parent="1">
          <mxGeometry x="110" y="320" width="300" height="490" as="geometry" />
        </mxCell>
        <mxCell id="RmrX7f-hB1F3z02eTJsi-17" value="&lt;h1&gt;Photo&lt;/h1&gt;" style="rounded=0;whiteSpace=wrap;html=1;" vertex="1" parent="1">
          <mxGeometry x="430" y="320" width="270" height="490" as="geometry" />
        </mxCell>
        <mxCell id="RmrX7f-hB1F3z02eTJsi-18" value="" style="rounded=0;whiteSpace=wrap;html=1;" vertex="1" parent="1">
          <mxGeometry x="100" y="840" width="620" height="240" as="geometry" />
        </mxCell>
        <mxCell id="RmrX7f-hB1F3z02eTJsi-20" value="&lt;h1&gt;QR Code&lt;/h1&gt;" style="rounded=0;whiteSpace=wrap;html=1;" vertex="1" parent="1">
          <mxGeometry x="410" y="855" width="300" height="210" as="geometry" />
        </mxCell>
        <mxCell id="RmrX7f-hB1F3z02eTJsi-21" value="&lt;h1&gt;Text&lt;/h1&gt;" style="rounded=0;whiteSpace=wrap;html=1;" vertex="1" parent="1">
          <mxGeometry x="110" y="855" width="300" height="205" as="geometry" />
        </mxCell>
      </root>
    </mxGraphModel>
  </diagram>
</mxfile>
